{"title":"The Adjustment Bureau (24-3-2011 Bios))(DivX)(TS)(Nl subs) TBS","uid":6241958,"size":939451224,"categoryP":"video","categoryS":"movies","magnet":"?xt=urn:btih:c5a62393868bd06650bf849c07e8743a84493d74&amp;dn=The+Adjustment+Bureau+%2824-3-2011+Bios%29%29%28DivX%29%28TS%29%28Nl+subs%29+TBS&amp;tr=udp%3A%2F%2Ftracker.openbittorrent.com%3A80&amp;tr=udp%3A%2F%2Fopen.demonii.com%3A1337&amp;tr=udp%3A%2F%2Ftracker.coppersurfer.tk%3A6969&amp;tr=udp%3A%2F%2Fexodus.desync.com%3A6969","seeders":0,"leechers":1,"uploader":"Vlinder.","files":-1,"time":1300100449,"description":"The Adjustment Bureau (2011)(DivX)(TS)(Nl subs) TBS\n\n******Vanaf 24 maart in de bioscoop*******\n\nVerenigde Staten\nRomantiek / Science-Fiction\n105 minuten\n\ngeregisseerd door George Nolfi\nmet Matt Damon, Emily Blunt en Michael Kelly\n\nDe ambitieuze David Norris (Matt Damon) staat op het punt een zetel te bemachtigen in de Amerikaanse senaat, maar als hij de bloedmooie Elise Sellas (Emily Blunt) ontmoet en een romantische affaire met haar krijgt, verandert zijn leven drastisch. David ontdekt al gauw dat ze gevolgd worden door mannen die in opdracht van het mysterieuze 'The Adjustment Bureau' alles op alles zetten om te verhinderen dat ze samen zijn.\n\nStoryline\n\nDo we control our destiny, or do unseen forces manipulate us? Matt Damon stars in the thriller The Adjustment Bureau as a man who glimpses the future Fate has planned for him and realizes he wants something else. To get it, he must pursue the only woman he's ever loved across, under and through the streets of \nmodern-day New York. On the brink of winning a seat in the U.S. Senate, ambitious politician David Norris (Damon) meets beautiful contemporary ballet dancer Elise Sellas (Emily Blunt)-a woman like none he's ever known. But just as he realizes he's falling for her, mysterious men conspire to keep the two apart. \nDavid learns he is up against the agents of Fate itself-the men of The Adjustment Bureau-who will do everything in their considerable power to prevent David and Elise from being together. In the face of overwhelming odds, he must either let her go and accept a predetermined path...\n\n\nInfo\n\nSource.............: The Adjustment Bureau 2011 TS XviD-NOVA\nFormat.............: DivX\nBron...............: TS\nruntime............: 105 min.\nMenu...............: Nope\nSubtitles.NL.......: Vertaald door Tokke, Heksje en Suurtje\n\nGeneral\nComplete name                    : The Adjustment Bureau.avi\nFormat                           : DivX\nFormat/Info                      : Hack of AVI\nFile size                        : 896 MiB\nDuration                         : 1h 34mn\nOverall bit rate                 : 1 323 Kbps\n\nVideo\nID                               : 0\nFormat                           : MPEG-4 Visual\nFormat profile                   : Advanced Simple@L5\nFormat settings, BVOP            : Yes\nFormat settings, QPel            : No\nFormat settings, GMC             : No warppoints\nFormat settings, Matrix          : Default (H.263)\nMuxing mode                      : Packed bitstream\nCodec ID                         : DX50\nCodec ID/Hint                    : DivX 5\nDuration                         : 1h 34mn\nBit rate                         : 1 121 Kbps\nWidth                            : 720 pixels\nHeight                           : 416 pixels\nDisplay aspect ratio             : 16:9\nFrame rate                       : 25.000 fps\nColor space                      : YUV\nChroma subsampling               : 4:2:0\nBit depth                        : 8 bits\nScan type                        : Progressive\nBits/(Pixel*Frame)               : 0.150\nStream size                      : 759 MiB (85%)\nTitle                            : Video \nWriting library                  : XviD 1.2.1 (UTC 2008-12-04)\n\nAudio\nID                               : 1\nFormat                           : AC-3\nFormat/Info                      : Audio Coding 3\nMode extension                   : CM (complete main)\nCodec ID                         : 2000\nDuration                         : 1h 34mn\nBit rate mode                    : Constant\nBit rate                         : 192 Kbps\nChannel(s)                       : 2 channels\nChannel positions                : Front: L R\nSampling rate                    : 48.0 KHz\nBit depth                        : 16 bits\nStream size                      : 130 MiB (15%)\nAlignment                        : Split accross interleaves\nInterleave, duration             : 40 ms (1.00 video frame)\nInterleave, preload duration     : 500 ms\nTitle                            : Audio \n &lt;a href=&quot;\nhttp://www.moviemeter.nl/film/65088&quot; rel=&quot;nofollow&quot; target=&quot;_NEW&quot;&gt;\nhttp://www.moviemeter.nl/film/65088&lt;/a&gt; &lt;a href=&quot;\nhttp://www.imdb.com/title/tt1385826&quot; rel=&quot;nofollow&quot; target=&quot;_NEW&quot;&gt;\nhttp://www.imdb.com/title/tt1385826&lt;/a&gt;\n\n","torrent":{"xt":"urn:btih:c5a62393868bd06650bf849c07e8743a84493d74","amp;dn":"The+Adjustment+Bureau+%2824-3-2011+Bios%29%29%28DivX%29%28TS%29%28Nl+subs%29+TBS","amp;tr":["udp%3A%2F%2Ftracker.openbittorrent.com%3A80","udp%3A%2F%2Fopen.demonii.com%3A1337","udp%3A%2F%2Ftracker.coppersurfer.tk%3A6969","udp%3A%2F%2Fexodus.desync.com%3A6969"],"infoHash":"c5a62393868bd06650bf849c07e8743a84493d74","infoHashBuffer":{"type":"Buffer","data":[197,166,35,147,134,139,208,102,80,191,132,156,7,232,116,58,132,73,61,116]},"announce":[],"urlList":[]}}